<svg width="24" height="24" viewBox="0 0 24 24" fill="none" xmlns="http://www.w3.org/2000/svg">
<path d="M0 10C0 4.47715 4.47715 0 10 0H14C19.5228 0 24 4.47715 24 10V14C24 19.5228 19.5228 24 14 24H10C4.47715 24 0 19.5228 0 14V10Z" fill="#F7F7F7"/>
<path d="M15.4213 13.0004C15.0078 13.0007 14.611 13.1551 14.3161 13.4303L10.1588 11.6706C10.1588 11.6106 10.1588 11.5606 10.1588 11.5006C10.1588 11.4406 10.1588 11.3906 10.1588 11.3356L14.3161 9.57087C14.5765 9.81335 14.9173 9.96272 15.2804 9.99362C15.6436 10.0245 16.0068 9.93504 16.3084 9.74038C16.6101 9.54572 16.8314 9.25788 16.935 8.92575C17.0385 8.59362 17.0179 8.23768 16.8765 7.91837C16.7352 7.59906 16.4818 7.33609 16.1595 7.1741C15.8372 7.01211 15.4658 6.9611 15.1084 7.02974C14.7511 7.09837 14.4297 7.28241 14.1989 7.55061C13.9681 7.81881 13.8422 8.15462 13.8425 8.50101V8.67099L9.68516 10.4308C9.46328 10.2237 9.18194 10.0834 8.87646 10.0277C8.57099 9.97199 8.25499 10.0032 7.96814 10.1175C7.68129 10.2318 7.43637 10.4241 7.26413 10.6701C7.09189 10.9162 7 11.2051 7 11.5006C7 11.7961 7.09189 12.085 7.26413 12.3311C7.43637 12.5772 7.68129 12.7694 7.96814 12.8837C8.25499 12.998 8.57099 13.0292 8.87646 12.9735C9.18194 12.9178 9.46328 12.7776 9.68516 12.5705L13.8425 14.3352V14.5002C13.8425 14.7968 13.9351 15.0868 14.1086 15.3334C14.2821 15.5801 14.5286 15.7723 14.8171 15.8858C15.1056 15.9993 15.423 16.0291 15.7293 15.9712C16.0355 15.9133 16.3168 15.7705 16.5376 15.5607C16.7584 15.351 16.9087 15.0837 16.9697 14.7928C17.0306 14.5019 16.9993 14.2003 16.8798 13.9263C16.7603 13.6522 16.558 13.418 16.2984 13.2532C16.0387 13.0884 15.7335 13.0004 15.4213 13.0004Z" fill="#18191C"/>
</svg>
