<svg width="32" height="32" viewBox="0 0 32 32" fill="none" xmlns="http://www.w3.org/2000/svg">
<path d="M32 22C32 27.5229 27.5228 32 22 32H10C4.47715 32 0 27.5229 0 22V10C0 4.47716 4.47715 7.62939e-06 10 7.62939e-06H22C27.5228 7.62939e-06 32 4.47716 32 10V22Z" fill="#F7F7F7"/>
<path d="M15.6667 12.3333C14.9671 12.3333 14.2852 12.5535 13.7176 12.9625C13.1501 13.3716 12.7256 13.9489 12.5044 14.6126C12.2832 15.2763 12.2764 15.9928 12.485 16.6606C12.6936 17.3283 13.107 17.9136 13.6667 18.3333V21C13.6667 21.3536 13.8071 21.6928 14.0572 21.9428C14.3072 22.1929 14.6464 22.3333 15 22.3333H16.3333C16.687 22.3333 17.0261 22.1929 17.2761 21.9428C17.5262 21.6928 17.6667 21.3536 17.6667 21V18.3333C18.2264 17.9136 18.6398 17.3283 18.8484 16.6606C19.057 15.9928 19.0502 15.2763 18.8289 14.6126C18.6077 13.9489 18.1833 13.3716 17.6157 12.9625C17.0481 12.5535 16.3663 12.3333 15.6667 12.3333Z" fill="#18191C"/>
<path d="M15.6667 11.6667C15.8435 11.6667 16.013 11.5964 16.1381 11.4714C16.2631 11.3464 16.3333 11.1768 16.3333 11V9.66667C16.3333 9.48986 16.2631 9.32029 16.1381 9.19526C16.013 9.07024 15.8435 9 15.6667 9C15.4899 9 15.3203 9.07024 15.1953 9.19526C15.0702 9.32029 15 9.48986 15 9.66667V11C15 11.1768 15.0702 11.3464 15.1953 11.4714C15.3203 11.5964 15.4899 11.6667 15.6667 11.6667Z" fill="#18191C"/>
<path d="M21.6667 15H20.3333C20.1565 15 19.987 15.0702 19.8619 15.1953C19.7369 15.3203 19.6667 15.4899 19.6667 15.6667C19.6667 15.8435 19.7369 16.0131 19.8619 16.1381C19.987 16.2631 20.1565 16.3333 20.3333 16.3333H21.6667C21.8435 16.3333 22.013 16.2631 22.1381 16.1381C22.2631 16.0131 22.3333 15.8435 22.3333 15.6667C22.3333 15.4899 22.2631 15.3203 22.1381 15.1953C22.013 15.0702 21.8435 15 21.6667 15Z" fill="#18191C"/>
<path d="M11 15H9.66667C9.48986 15 9.32029 15.0702 9.19526 15.1953C9.07024 15.3203 9 15.4899 9 15.6667C9 15.8435 9.07024 16.0131 9.19526 16.1381C9.32029 16.2631 9.48986 16.3333 9.66667 16.3333H11C11.1768 16.3333 11.3464 16.2631 11.4714 16.1381C11.5964 16.0131 11.6667 15.8435 11.6667 15.6667C11.6667 15.4899 11.5964 15.3203 11.4714 15.1953C11.3464 15.0702 11.1768 15 11 15Z" fill="#18191C"/>
<path d="M12.7733 11.9467L11.8133 11C11.6834 10.8771 11.5099 10.8109 11.3311 10.8159C11.1524 10.8209 10.9829 10.8967 10.86 11.0267C10.7371 11.1566 10.6709 11.3301 10.6759 11.5089C10.6809 11.6876 10.7567 11.8571 10.8867 11.98L11.8467 12.9067C11.9111 12.9689 11.9874 13.0175 12.071 13.0495C12.1546 13.0816 12.2438 13.0965 12.3333 13.0933C12.4231 13.093 12.5119 13.0745 12.5944 13.039C12.6769 13.0035 12.7514 12.9517 12.8133 12.8867C12.9323 12.7565 12.9949 12.5846 12.9874 12.4084C12.9799 12.2322 12.903 12.0662 12.7733 11.9467Z" fill="#18191C"/>
<path d="M20.46 11.0333C20.3351 10.9092 20.1661 10.8395 19.99 10.8395C19.8139 10.8395 19.6449 10.9092 19.52 11.0333L18.56 11.9467C18.4358 12.0716 18.3661 12.2405 18.3661 12.4167C18.3661 12.5928 18.4358 12.7618 18.56 12.8867C18.622 12.9517 18.6964 13.0035 18.7789 13.039C18.8614 13.0745 18.9502 13.093 19.04 13.0933C19.2116 13.0926 19.3764 13.0258 19.5 12.9067L20.46 11.98C20.5225 11.918 20.5721 11.8443 20.6059 11.763C20.6398 11.6818 20.6572 11.5947 20.6572 11.5067C20.6572 11.4187 20.6398 11.3315 20.6059 11.2503C20.5721 11.169 20.5225 11.0953 20.46 11.0333Z" fill="#18191C"/>
</svg>
