<svg width="24" height="24" viewBox="0 0 24 24" fill="none" xmlns="http://www.w3.org/2000/svg">
<path d="M0 10C0 4.47715 4.47715 0 10 0H14C19.5228 0 24 4.47715 24 10V14C24 19.5228 19.5228 24 14 24H10C4.47715 24 0 19.5228 0 14V10Z" fill="#F7F7F7"/>
<path d="M15.5062 8.47114C14.6897 7.64811 13.6121 7.13615 12.4591 7.02354C11.3061 6.91093 10.1501 7.20471 9.1902 7.85424C8.23033 8.50377 7.52681 9.46835 7.20094 10.5817C6.87507 11.695 6.94726 12.8873 7.40508 13.953C7.45279 14.0521 7.46845 14.1636 7.44986 14.272L7.01196 16.38C6.99509 16.4608 6.99854 16.5446 7.02199 16.6238C7.04544 16.7029 7.08816 16.775 7.14632 16.8335C7.19399 16.8809 7.25075 16.9182 7.31319 16.943C7.37562 16.9678 7.44242 16.9798 7.50957 16.9781H7.6091L9.73887 16.5495C9.84712 16.5364 9.95688 16.5519 10.0573 16.5943C11.1215 17.0528 12.312 17.1251 13.4237 16.7988C14.5353 16.4724 15.4985 15.7678 16.147 14.8065C16.7956 13.8452 17.0889 12.6874 16.9765 11.5327C16.864 10.378 16.3529 9.2988 15.5311 8.48111L15.5062 8.47114ZM9.99763 12.4929C9.89921 12.4929 9.803 12.4636 9.72117 12.4089C9.63934 12.3541 9.57556 12.2763 9.5379 12.1852C9.50023 12.0942 9.49038 11.994 9.50958 11.8973C9.52878 11.8006 9.57617 11.7118 9.64576 11.6421C9.71536 11.5724 9.80402 11.525 9.90055 11.5057C9.99708 11.4865 10.0971 11.4964 10.1881 11.5341C10.279 11.5718 10.3567 11.6357 10.4114 11.7176C10.4661 11.7996 10.4952 11.8959 10.4952 11.9945C10.4952 12.1267 10.4428 12.2534 10.3495 12.3469C10.2562 12.4404 10.1296 12.4929 9.99763 12.4929ZM11.9881 12.4929C11.8897 12.4929 11.7934 12.4636 11.7116 12.4089C11.6298 12.3541 11.566 12.2763 11.5283 12.1852C11.4907 12.0942 11.4808 11.994 11.5 11.8973C11.5192 11.8006 11.5666 11.7118 11.6362 11.6421C11.7058 11.5724 11.7945 11.525 11.891 11.5057C11.9875 11.4865 12.0876 11.4964 12.1785 11.5341C12.2694 11.5718 12.3471 11.6357 12.4018 11.7176C12.4565 11.7996 12.4857 11.8959 12.4857 11.9945C12.4857 12.1267 12.4333 12.2534 12.3399 12.3469C12.2466 12.4404 12.12 12.4929 11.9881 12.4929ZM13.9785 12.4929C13.8801 12.4929 13.7839 12.4636 13.7021 12.4089C13.6202 12.3541 13.5564 12.2763 13.5188 12.1852C13.4811 12.0942 13.4713 11.994 13.4905 11.8973C13.5097 11.8006 13.5571 11.7118 13.6266 11.6421C13.6962 11.5724 13.7849 11.525 13.8814 11.5057C13.978 11.4865 14.078 11.4964 14.1689 11.5341C14.2599 11.5718 14.3376 11.6357 14.3923 11.7176C14.4469 11.7996 14.4761 11.8959 14.4761 11.9945C14.4761 12.1267 14.4237 12.2534 14.3304 12.3469C14.2371 12.4404 14.1105 12.4929 13.9785 12.4929Z" fill="#18191C"/>
</svg>
