<svg width="32" height="32" viewBox="0 0 32 32" fill="none" xmlns="http://www.w3.org/2000/svg">
<path d="M0 10C0 4.47715 4.47715 0 10 0H22C27.5228 0 32 4.47715 32 10V22C32 27.5228 27.5228 32 22 32H10C4.47715 32 0 27.5228 0 22V10Z" fill="#F7F7F7"/>
<path d="M20.8212 12.4646L17.7688 9.21461C17.7045 9.14728 17.626 9.09341 17.5384 9.05647C17.4508 9.01953 17.3559 9.00033 17.26 9.00012H11.76C11.5316 8.99754 11.3049 9.03753 11.0928 9.1178C10.8807 9.19807 10.6874 9.31705 10.524 9.46795C10.3606 9.61884 10.2302 9.7987 10.1403 9.99724C10.0504 10.1958 10.0027 10.4091 10 10.6251V20.3749C10.0027 20.5909 10.0504 20.8042 10.1403 21.0028C10.2302 21.2013 10.3606 21.3812 10.524 21.5321C10.6874 21.6829 10.8807 21.8019 11.0928 21.8822C11.3049 21.9625 11.5316 22.0025 11.76 21.9999H19.24C19.4684 22.0025 19.6951 21.9625 19.9072 21.8822C20.1193 21.8019 20.3126 21.6829 20.476 21.5321C20.6394 21.3812 20.7698 21.2013 20.8597 21.0028C20.9496 20.8042 20.9973 20.5909 21 20.3749V12.9C20.9996 12.739 20.9359 12.5838 20.8212 12.4646ZM13.4375 15.5H15.5C15.6823 15.5 15.8572 15.5685 15.9861 15.6904C16.1151 15.8123 16.1875 15.9776 16.1875 16.15C16.1875 16.3224 16.1151 16.4877 15.9861 16.6096C15.8572 16.7315 15.6823 16.8 15.5 16.8H13.4375C13.2552 16.8 13.0803 16.7315 12.9514 16.6096C12.8224 16.4877 12.75 16.3224 12.75 16.15C12.75 15.9776 12.8224 15.8123 12.9514 15.6904C13.0803 15.5685 13.2552 15.5 13.4375 15.5ZM17.5625 19.3999H13.4375C13.2552 19.3999 13.0803 19.3314 12.9514 19.2096C12.8224 19.0877 12.75 18.9223 12.75 18.7499C12.75 18.5776 12.8224 18.4122 12.9514 18.2903C13.0803 18.1684 13.2552 18.1 13.4375 18.1H17.5625C17.7448 18.1 17.9197 18.1684 18.0486 18.2903C18.1776 18.4122 18.25 18.5776 18.25 18.7499C18.25 18.9223 18.1776 19.0877 18.0486 19.2096C17.9197 19.3314 17.7448 19.3999 17.5625 19.3999ZM17.3631 12.9C17.2214 12.8869 17.0908 12.8216 16.9995 12.7182C16.9082 12.6149 16.8635 12.4818 16.875 12.3476V10.3001L19.4462 12.9H17.3631Z" fill="#18191C"/>
</svg>
