<svg width="32" height="32" viewBox="0 0 32 32" fill="none" xmlns="http://www.w3.org/2000/svg">
<path d="M0 10C0 4.47715 4.47715 0 10 0H22C27.5228 0 32 4.47715 32 10V22C32 27.5228 27.5228 32 22 32H10C4.47715 32 0 27.5228 0 22V10Z" fill="#F7F7F7"/>
<path d="M20.3125 10H12.0625C11.5155 10 10.9909 10.2107 10.6041 10.5858C10.2173 10.9609 10 11.4696 10 12V20C10 20.5304 10.2173 21.0391 10.6041 21.4142C10.9909 21.7893 11.5155 22 12.0625 22H20.3125C20.4948 22 20.6697 21.9298 20.7986 21.8047C20.9276 21.6797 21 21.5101 21 21.3333V10.6667C21 10.4899 20.9276 10.3203 20.7986 10.1953C20.6697 10.0702 20.4948 10 20.3125 10ZM12.0625 20.6667C11.8802 20.6667 11.7053 20.5964 11.5764 20.4714C11.4474 20.3464 11.375 20.1768 11.375 20C11.375 19.8232 11.4474 19.6536 11.5764 19.5286C11.7053 19.4036 11.8802 19.3333 12.0625 19.3333H19.625V20.6667H12.0625Z" fill="#18191C"/>
</svg>
