<svg width="32" height="32" viewBox="0 0 32 32" fill="none" xmlns="http://www.w3.org/2000/svg">
<path d="M0 10C0 4.47715 4.47715 0 10 0H22C27.5228 0 32 4.47715 32 10V22C32 27.5228 27.5228 32 22 32H10C4.47715 32 0 27.5228 0 22V10Z" fill="#F7F7F7"/>
<path d="M13.0468 16.6999C12.4671 16.8385 11.9506 17.1672 11.5796 17.6336C11.2086 18.1001 11.0046 18.6774 11.0001 19.2733V21.3467C10.9992 21.389 11.0068 21.431 11.0226 21.4703C11.0383 21.5095 11.0619 21.5451 11.0918 21.575C11.1217 21.6049 11.1573 21.6285 11.1966 21.6442C11.2358 21.66 11.2778 21.6676 11.3201 21.6667L13.4801 21.6267C13.9627 21.6275 14.4354 21.4897 14.8419 21.2297C15.2485 20.9697 15.5718 20.5984 15.7736 20.16C15.9805 19.7469 16.0656 19.2833 16.0188 18.8235C15.9719 18.3638 15.7952 17.9269 15.5091 17.5639C15.2231 17.201 14.8396 16.927 14.4036 16.774C13.9675 16.621 13.4969 16.5953 13.0468 16.6999Z" fill="#18191C"/>
<path d="M21.1404 11.3064C20.8606 11.0858 20.5085 10.9779 20.1532 11.0038C19.7979 11.0297 19.4651 11.1876 19.2203 11.4464L14.9669 15.7199C14.909 15.7785 14.8766 15.8576 14.8766 15.9399C14.8766 16.0222 14.909 16.1013 14.9669 16.1599L16.4669 17.6666C16.5255 17.7244 16.6046 17.7568 16.6869 17.7568C16.7693 17.7568 16.8483 17.7244 16.9069 17.6666L21.2337 13.3532C21.3619 13.2244 21.4633 13.0715 21.5319 12.9032C21.6006 12.735 21.6352 12.5548 21.6337 12.3731C21.6384 12.1695 21.5964 11.9674 21.5109 11.7825C21.4254 11.5976 21.2986 11.4347 21.1404 11.3064Z" fill="#18191C"/>
</svg>
