<svg width="24" height="24" viewBox="0 0 24 24" fill="none" xmlns="http://www.w3.org/2000/svg">
<path d="M0 10C0 4.47717 4.47715 1.52588e-05 10 1.52588e-05H14C19.5228 1.52588e-05 24 4.47717 24 10V14C24 19.5229 19.5228 24 14 24H10C4.47715 24 0 19.5229 0 14V10Z" fill="#F7F7F7"/>
<path d="M11.6758 11.3765C12.0798 11.3765 12.4748 11.2567 12.8108 11.0322C13.1468 10.8077 13.4087 10.4886 13.5633 10.1153C13.7179 9.74197 13.7584 9.33118 13.6795 8.93487C13.6007 8.53856 13.4061 8.17452 13.1204 7.8888C12.8347 7.60307 12.4706 7.40849 12.0743 7.32966C11.678 7.25083 11.2672 7.29129 10.8939 7.44592C10.5206 7.60056 10.2015 7.86242 9.97704 8.19839C9.75254 8.53437 9.63272 8.92937 9.63272 9.33345C9.63272 9.87529 9.84797 10.3949 10.2311 10.7781C10.6143 11.1612 11.1339 11.3765 11.6758 11.3765Z" fill="#18191C"/>
<path d="M14.7403 16.4841C14.8758 16.4841 15.0057 16.4303 15.1015 16.3345C15.1973 16.2387 15.2511 16.1088 15.2511 15.9733C15.2511 15.0251 14.8744 14.1157 14.2039 13.4452C13.5334 12.7747 12.624 12.398 11.6758 12.398C10.7275 12.398 9.81812 12.7747 9.14762 13.4452C8.47712 14.1157 8.10043 15.0251 8.10043 15.9733C8.10043 16.1088 8.15425 16.2387 8.25003 16.3345C8.34582 16.4303 8.47573 16.4841 8.61119 16.4841H14.7403Z" fill="#18191C"/>
</svg>
